<svg width="500" height="500" viewBox="0 0 500 500" fill="none" xmlns="http://www.w3.org/2000/svg">
  <defs>
    <path id="textCirclePath" d="M 250, 250 m -210, 0 a 210,210 0 1,1 420,0 a 210,210 0 1,1 -420,0" />
  </defs>

  <circle cx="250" cy="250" r="245" fill="#FFFFFF" />

  <g id="center-emblem">
    <!-- Top Quadrant -->
    <path d="M 190 90 L 235 90 L 235 160 L 210 160 L 210 120 L 190 120 Z" fill="#FF3B00" />
    <path d="M 190 120 L 240 120 L 240 210 L 210 210 L 210 160 L 190 160 Z" fill="#FF3B00" />
    <path d="M 310 90 L 265 90 L 265 160 L 290 160 L 290 120 L 310 120 Z" fill="#84CC16" />
    <path d="M 310 120 L 260 120 L 260 210 L 290 210 L 290 160 L 310 160 Z" fill="#84CC16" />

    <!-- Bottom Quadrant -->
    <path d="M 190 410 L 235 410 L 235 340 L 210 340 L 210 380 L 190 380 Z" fill="#0284C7" />
    <path d="M 190 380 L 240 380 L 240 290 L 210 290 L 210 340 L 190 340 Z" fill="#0284C7" />
    <path d="M 310 410 L 265 410 L 265 340 L 290 340 L 290 380 L 310 380 Z" fill="#EAB308" />
    <path d="M 310 380 L 260 380 L 260 290 L 290 290 L 290 340 L 310 340 Z" fill="#EAB308" />

    <!-- Left Quadrant -->
    <path d="M 90 190 L 90 235 L 160 235 L 160 210 L 120 210 L 120 190 Z" fill="#FF3B00" />
    <path d="M 120 190 L 120 240 L 210 240 L 210 210 L 160 210 L 160 190 Z" fill="#FF3B00" />
    <path d="M 90 310 L 90 265 L 160 265 L 160 290 L 120 290 L 120 310 Z" fill="#0284C7" />
    <path d="M 120 310 L 120 260 L 210 260 L 210 290 L 160 290 L 160 310 Z" fill="#0284C7" />

    <!-- Right Quadrant -->
    <path d="M 410 190 L 410 235 L 340 235 L 340 210 L 380 210 L 380 190 Z" fill="#84CC16" />
    <path d="M 380 190 L 380 240 L 290 240 L 290 210 L 340 210 L 340 190 Z" fill="#84CC16" />
    <path d="M 410 310 L 410 265 L 340 265 L 340 290 L 380 290 L 380 310 Z" fill="#EAB308" />
    <path d="M 380 310 L 380 260 L 290 260 L 290 290 L 340 290 L 340 310 Z" fill="#EAB308" />

    <!-- Center Axes & Perspective -->
    <rect x="238" y="90" width="24" height="320" fill="#000000" />
    <rect x="90" y="238" width="320" height="24" fill="#000000" />

    <rect x="215" y="215" width="70" height="70" fill="none" stroke="#000000" stroke-width="6" />
    <path d="M 215 215 L 238 238 M 285 215 L 262 238 M 215 285 L 238 262 M 285 285 L 262 262" stroke="#000000" stroke-width="4" />

    <rect x="230" y="230" width="40" height="40" fill="#000000" />
    <rect x="236" y="236" width="28" height="28" fill="#FFFFFF" />
    <rect x="242" y="242" width="16" height="16" fill="#000000" />
    <rect x="246" y="246" width="8" height="8" fill="#FFFFFF" />
  </g>

  <!-- Circular Text Ring -->
  <text font-size="28" font-weight="900" font-family="sans-serif" letter-spacing="3">
    <textPath href="#textCirclePath" startOffset="0%">
      <tspan fill="#FF3B00">MAHMOOD </tspan>
      <tspan fill="#FF3B00">• </tspan>
      <tspan fill="#000000">A</tspan>
      <tspan fill="#FF3B00">I </tspan>
      <tspan fill="#84CC16">• </tspan>
      <tspan fill="#84CC16">iNKSTECHSHUB </tspan>
      <tspan fill="#EAB308">• </tspan>
      <tspan fill="#EAB308">STUDIO </tspan>
      <tspan fill="#0284C7">• </tspan>
      <tspan fill="#0284C7">ART </tspan>
      <tspan fill="#FF3B00">•</tspan>
    </textPath>
  </text>
</svg>
